<svg id="Capa_1" enable-background="new 0 0 512 512" height="512" viewBox="0 0 512 512" width="512" xmlns="http://www.w3.org/2000/svg"><g><g><path d="m122.343 466.408c109.574 109.573 298.653-70.854 298.653-70.854 118.114-118.114-109.724-345.952-227.838-227.838 0 0-180.388 189.119-70.815 298.692z" fill="#c49a8b"/><path d="m383.791 181.987c39.063 45.682 54.742 108.843 10.561 153.023 0 0-152.902 145.905-241.51 57.297-76.055-76.055 20.639-199.499 49.562-232.949-3.147 2.57-6.234 5.345-9.246 8.357 0 0-180.388 189.119-70.815 298.692 109.574 109.574 298.653-70.854 298.653-70.854 63.027-63.025 27.544-157.288-37.205-213.566z" fill="#b2748a"/><path d="m458.405 130.347c-10.175-10.175-26.673-10.175-36.848 0l-32.27 32.27 36.848 36.848 32.27-32.27c10.175-10.176 10.175-26.673 0-36.848z" fill="#a07575"/><path d="m435.693 408.062c133.772-145.602-109.401-388.775-255.004-255.003-2.964 2.723-3.126 7.322-.336 10.112l245.228 245.228c2.79 2.789 7.389 2.627 10.112-.337z" fill="#a07575"/><path d="m394.122 158.895c35.304 45.544 46.366 107.604 2.426 155.43-2.014 2.192-5.414 2.312-7.477.249l-181.335-181.335c-.044-.044-.072-.097-.114-.141-9.255 5.391-18.268 12.001-26.932 19.961-2.964 2.723-3.126 7.322-.336 10.112l245.228 245.228c2.79 2.79 7.388 2.628 10.112-.336 73.301-79.785 33.418-188.863-41.572-249.168z" fill="#925873"/><path d="m67.807 111.857 8.521 23.96c.365 1.026 1.087 1.839 1.998 2.249l21.287 9.591c3.007 1.355 3.007 6.147 0 7.501l-21.287 9.591c-.911.411-1.634 1.224-1.998 2.249l-8.521 23.96c-1.204 3.385-5.461 3.385-6.665 0l-8.521-23.96c-.365-1.026-1.087-1.839-1.999-2.249l-21.287-9.591c-3.007-1.355-3.007-6.147 0-7.501l21.287-9.591c.911-.411 1.634-1.224 1.999-2.249l8.521-23.96c1.204-3.385 5.461-3.385 6.665 0z" fill="#efc5b4"/><path d="m204.471 1.883 6.321 17.773c.271.761.806 1.364 1.482 1.669l15.79 7.114c2.231 1.005 2.231 4.559 0 5.565l-15.79 7.114c-.676.305-1.212.908-1.482 1.669l-6.321 17.773c-.893 2.511-4.051 2.511-4.944 0l-6.321-17.773c-.271-.761-.806-1.364-1.482-1.669l-15.79-7.114c-2.231-1.005-2.231-4.559 0-5.565l15.79-7.114c.676-.305 1.212-.908 1.482-1.669l6.321-17.773c.893-2.511 4.051-2.511 4.944 0z" fill="#efc5b4"/><g fill="#e8a284"><ellipse cx="382.398" cy="50.003" rx="18.606" ry="18.606" transform="matrix(.23 -.973 .973 .23 245.876 410.683)"/><path d="m91.593 31.869c0 4.433-3.593 8.026-8.026 8.026s-8.026-3.594-8.026-8.026c0-4.433 3.593-8.026 8.026-8.026s8.026 3.593 8.026 8.026z"/></g></g><g><path d="m154.994 310.138c-1.485 0-2.993-.32-4.424-.996-5.18-2.447-7.395-8.63-4.949-13.81 4.839-10.243 10.446-20.416 17.142-31.097 3.042-4.855 9.442-6.323 14.298-3.28 4.853 3.043 6.322 9.444 3.279 14.298-6.255 9.98-11.476 19.446-15.961 28.941-1.769 3.747-5.497 5.944-9.385 5.944z" fill="#fff"/><path d="m189.578 253.968c-2.172 0-4.362-.679-6.231-2.087-4.577-3.446-5.493-9.949-2.048-14.526.923-1.225 1.851-2.445 2.787-3.661 3.496-4.539 10.009-5.384 14.548-1.889s5.385 10.008 1.889 14.548c-.889 1.155-1.773 2.315-2.649 3.48-2.04 2.708-5.149 4.135-8.296 4.135z" fill="#fff"/><g fill="#3c122c"><path d="m483.014 286.421c-4.506-31.717-18.549-62.275-38.88-90.286l21.606-21.606c6.88-6.88 10.67-16.028 10.67-25.759s-3.79-18.879-10.67-25.759c-14.204-14.203-37.314-14.204-51.518 0l-21.606 21.606c-27.922-20.609-59.071-34.135-90.286-38.88-47.974-7.296-92.464 6.429-128.66 39.682-3.509 3.224-5.58 7.794-5.681 12.537-.099 4.679 1.733 9.253 5.029 12.549l1.959 1.959c-15.51 17.991-44.822 54.646-67.539 98.758-43.353 84.186-40.735 154.216 7.569 202.521 25.492 25.491 57.031 38.257 93.506 38.257 32.644 0 69.244-10.226 108.997-30.707 44.111-22.726 80.757-52.045 98.74-67.556l1.997 1.997c3.254 3.253 7.561 5.031 12.165 5.031.127 0 .254-.002.382-.004 4.743-.101 9.312-2.172 12.537-5.681 33.254-36.194 46.976-80.684 39.683-128.659zm-54.122-148.739c2.962-2.962 6.901-4.593 11.088-4.593 4.189 0 8.127 1.631 11.089 4.593s4.594 6.9 4.594 11.089c0 4.188-1.632 8.126-4.594 11.088l-20.046 20.046c-3.436-3.9-7.009-7.722-10.732-11.445s-7.545-7.297-11.445-10.733zm-23.271 45.448c24.589 24.588 44.323 56.175 53.248 89.801h-62.615c-5.729 0-10.373 4.644-10.373 10.373s4.645 10.373 10.373 10.373h66.671c1.768 14.174 1.48 28.525-1.297 42.702h-93.395l-177.975-177.975c69.67-61.271 160.155-30.484 215.363 24.726zm-97.963 279.9c-76.278 39.197-136.16 37.864-177.98-3.957-41.823-41.823-43.16-101.711-3.976-178.001 21.086-41.055 48.891-76.148 64.015-93.868l211.793 211.793c-17.714 15.126-52.795 42.937-93.852 64.033zm122.689-64.536-41.367-41.367h66.699c-5.461 14.28-13.749 28.195-25.332 41.367z"/><path d="m198.908 435.723c-1.592 0-3.186-.608-4.4-1.823-2.431-2.43-2.431-6.371-.001-8.802l9.125-9.126c2.431-2.43 6.373-2.43 8.802 0 2.431 2.43 2.431 6.371.001 8.802l-9.125 9.126c-1.216 1.215-2.81 1.823-4.402 1.823z"/><path d="m267.999 435.078c-1.594 0-3.186-.608-4.401-1.823-2.43-2.431-2.43-6.372.001-8.802l9.126-9.126c2.43-2.431 6.372-2.429 8.802 0 2.43 2.431 2.43 6.372-.001 8.802l-9.126 9.126c-1.215 1.215-2.809 1.823-4.401 1.823z"/><path d="m284.813 384.655c-1.593 0-3.186-.608-4.402-1.823-2.43-2.431-2.43-6.372.001-8.802l9.126-9.126c2.43-2.431 6.372-2.429 8.802 0 2.43 2.431 2.43 6.372-.001 8.802l-9.126 9.126c-1.215 1.215-2.808 1.823-4.4 1.823z"/></g></g></g></svg>