<svg width="165" height="34" viewBox="0 0 165 34" fill="none" xmlns="http://www.w3.org/2000/svg">
<path d="M24.9935 14.087C25.0243 14.3028 25.1476 14.4261 25.3633 14.3953C25.7023 14.3645 26.0105 14.4261 26.3495 14.4261C26.5344 14.4261 26.7193 14.3953 26.9042 14.3953C27.2124 14.3645 27.3356 14.1179 27.274 13.6863C27.2432 13.4397 27.0583 13.3164 26.7501 13.3781C26.257 13.4705 25.7639 13.5938 25.2708 13.7171C25.0551 13.748 24.9626 13.9021 24.9935 14.087Z" fill="#F86250"/>
<path d="M44.6246 13.3164L22.4972 34L13.2518 26.0471L9.55361 22.7489L14.1763 19.8821C16.087 22.2557 19.0148 23.7661 22.3123 23.7661C28.0753 23.7661 32.7288 19.0807 32.7288 13.3472C32.7288 7.58295 28.0445 2.92838 22.3123 2.92838C16.5493 2.92838 11.8958 7.61378 11.8958 13.3472C11.8958 15.2584 12.4197 17.0462 13.3134 18.5875L8.32088 21.6392L0 14.2412L10.2008 0H33.9923L44.6246 13.3164Z" fill="#F86250"/>
<path d="M18.8915 12.0218C20.0317 12.0218 21.172 12.0218 22.3123 12.0218C23.4526 12.0218 24.5928 12.0218 25.7331 12.0218C25.918 12.0218 25.9796 11.9909 25.918 11.7752C25.7947 11.4053 25.6715 11.0045 25.5482 10.6346C25.4249 10.2956 25.24 10.1414 24.901 10.1414C23.1752 10.1414 21.4802 10.1414 19.7544 10.1414C19.4154 10.1414 19.1997 10.2956 19.1072 10.6346C18.9839 11.0045 18.8607 11.4053 18.7374 11.7752C18.6449 11.9909 18.6758 12.0218 18.8915 12.0218Z" fill="#F86250"/>
<path d="M17.3814 14.1179C17.443 14.272 17.5663 14.3953 17.7512 14.3953C18.0594 14.3953 18.3368 14.3953 18.6449 14.3953V14.4261C18.8607 14.4261 19.1072 14.3953 19.3229 14.3953C19.477 14.3645 19.6311 14.3028 19.6311 14.1179C19.6619 13.9329 19.5695 13.8096 19.3846 13.7171C19.3229 13.6863 19.2613 13.6863 19.1997 13.6555C18.7682 13.563 18.3368 13.4705 17.9053 13.3781C17.7204 13.3472 17.5663 13.3472 17.443 13.4705C17.3198 13.6863 17.3198 13.9021 17.3814 14.1179Z" fill="#F86250"/>
<path d="M22.3123 22.194C27.1815 22.194 31.1571 18.2176 31.1571 13.3472C31.1571 8.47688 27.2124 4.50045 22.3123 4.50045C17.4122 4.50045 13.4675 8.44606 13.4675 13.3472C13.4675 18.2484 17.443 22.194 22.3123 22.194ZM16.9191 11.2203C17.2889 11.2203 17.6279 11.2203 17.9978 11.2203C18.1827 11.2203 18.2443 11.1587 18.3059 11.0045C18.3984 10.6655 18.5217 10.3572 18.6141 10.049C18.7374 9.70988 18.9223 9.55576 19.2921 9.55576C21.2953 9.55576 23.3293 9.55576 25.3325 9.55576C25.7023 9.55576 25.8872 9.70988 26.0105 10.049C26.1029 10.3572 26.2262 10.6655 26.3186 11.0045C26.3803 11.1895 26.4727 11.2511 26.6576 11.2511C26.9658 11.2203 27.3048 11.2511 27.613 11.2511C27.9212 11.2511 28.0753 11.4053 28.1061 11.7135C28.1369 11.9601 27.952 12.0526 27.7671 12.1142C27.5205 12.1759 27.3048 12.2684 27.0275 12.3917C27.274 12.6074 27.4589 12.7924 27.6746 12.9773C27.8904 13.1623 27.9828 13.3781 27.9828 13.6555C27.952 14.7035 27.9828 15.7208 27.952 16.7688C27.952 17.0771 27.8595 17.2004 27.5514 17.2004C27.1507 17.2004 26.7809 17.2004 26.3803 17.2004C26.1029 17.2004 26.0105 17.1079 25.9796 16.8305C25.9488 16.214 25.9488 16.214 25.3325 16.214C23.1752 16.214 21.0487 16.214 18.8915 16.214C18.6449 16.214 18.5833 16.2756 18.5833 16.5222C18.5833 17.2312 18.5833 17.2312 17.8745 17.2312C17.5663 17.2312 17.2889 17.2312 16.9808 17.2312C16.7342 17.2312 16.6109 17.1079 16.6109 16.8613C16.6109 15.7824 16.6109 14.7035 16.5801 13.5938C16.5801 13.2548 16.7959 13.0698 17.0116 12.854C17.104 12.7616 17.2273 12.6999 17.3198 12.6074C17.5355 12.4225 17.5355 12.4225 17.2581 12.2992C17.0732 12.2375 16.9191 12.1759 16.7342 12.1142C16.5493 12.0526 16.426 11.9601 16.4569 11.7443C16.5185 11.4361 16.6726 11.2511 16.9191 11.2203Z" fill="#F86250"/>
<path d="M65.2727 10.388C65.2727 10.9121 65.1186 11.3128 64.8412 11.621C64.5639 11.8985 64.1632 12.0526 63.6393 12.0526H59.9412V17.6011C59.9412 18.2792 60.1261 18.7724 60.4959 19.0807C60.8657 19.3889 61.4204 19.5431 62.2525 19.5431C62.4991 19.5431 62.7764 19.5122 63.1462 19.4814C63.4852 19.4506 63.7318 19.4198 63.8859 19.4198C64.8412 19.4198 65.3035 19.8513 65.3343 20.6836V21.7625C65.3343 22.7489 64.9029 23.3345 64.0091 23.5195C62.9305 23.7661 61.9443 23.9202 60.989 23.9202C60.0644 23.951 59.1707 23.8586 58.3386 23.612C57.5065 23.3962 56.7977 23.0263 56.2122 22.5639C55.6266 22.0707 55.1644 21.4234 54.8254 20.5911C54.4864 19.7588 54.3015 18.7416 54.3015 17.6011V5.7951C54.3015 5.27108 54.4247 4.87035 54.7021 4.59293C54.9795 4.3155 55.3801 4.1922 55.9348 4.1922H58.3694C58.8933 4.1922 59.294 4.3155 59.5713 4.59293C59.8487 4.87035 60.0028 5.27108 60.0028 5.7951V7.76791H63.701C64.2249 7.76791 64.6255 7.92203 64.9029 8.19946C65.1802 8.47688 65.3343 8.87761 65.3343 9.40163V10.388H65.2727Z" fill="#232225"/>
<path d="M74.4565 7.49048C75.6276 7.49048 76.7062 7.61378 77.6307 7.86038C78.5861 8.10698 79.4182 8.47688 80.127 8.97008C80.8358 9.46328 81.3905 10.1414 81.7912 10.9429C82.1918 11.7752 82.3767 12.7307 82.3767 13.8096V18.9266C82.3767 20.6219 81.9761 21.8241 81.144 22.5331C80.3427 23.2421 79.0484 23.5811 77.2917 23.5811H73.3779C72.2992 23.5811 71.3747 23.5195 70.6042 23.3654C69.8338 23.2112 69.1558 22.9646 68.5394 22.6256C67.923 22.2865 67.4916 21.7933 67.1834 21.146C66.8752 20.4986 66.7211 19.6972 66.7211 18.7724C66.7211 17.8477 66.8752 17.0462 67.1834 16.3989C67.4916 15.7516 67.9539 15.2584 68.5394 14.8885C69.1558 14.5494 69.8338 14.272 70.6042 14.1179C71.3747 13.9637 72.2992 13.9021 73.3779 13.9021H76.8295V13.8096C76.8295 12.3608 75.72 11.621 73.5011 11.621C72.4533 11.621 71.1281 11.7752 69.5564 12.0834C69.0017 12.2067 68.5394 12.1142 68.2312 11.8676C67.923 11.621 67.769 11.1895 67.769 10.6346V9.86401C67.769 8.84678 68.3237 8.23028 69.464 8.0145C71.3439 7.67543 73.008 7.49048 74.4565 7.49048ZM75.5043 20.1596C76.059 20.1596 76.4288 20.0363 76.5829 19.8205C76.7678 19.6047 76.8603 19.204 76.8603 18.6491V17.3237H73.8709C73.0697 17.3237 72.5149 17.4161 72.2684 17.6319C72.0219 17.8477 71.8678 18.2176 71.8678 18.7416C71.8678 19.2656 71.991 19.6355 72.2684 19.8513C72.5149 20.0671 73.0697 20.1596 73.8709 20.1596H75.5043Z" fill="#232225"/>
<path d="M101.33 21.8549C101.669 22.3481 101.73 22.7489 101.484 23.1188C101.237 23.4578 100.775 23.6428 100.097 23.6428H97.6317C96.6763 23.6428 95.9983 23.3345 95.5669 22.6872L90.7592 16.1523V22.0399C90.7592 22.5639 90.636 22.9646 90.3586 23.2421C90.0812 23.5195 89.6806 23.6428 89.1567 23.6428H86.8145C86.2906 23.6428 85.89 23.5195 85.5818 23.2421C85.3044 22.9646 85.1503 22.5639 85.1503 22.0399V2.8359C85.1503 2.31188 85.2736 1.91115 85.551 1.6029C85.8283 1.32548 86.229 1.17135 86.7837 1.17135H89.1259C89.6498 1.17135 90.0504 1.32548 90.3278 1.6029C90.6052 1.88033 90.7284 2.28105 90.7284 2.8359V14.4569L95.536 8.69266C95.9367 8.07616 96.6147 7.76791 97.57 7.76791H99.943C100.652 7.76791 101.114 7.95286 101.33 8.29193C101.576 8.63101 101.484 9.06256 101.114 9.52493L96.1524 15.2276L101.33 21.8549Z" fill="#232225"/>
<path d="M118.804 13.8713C118.804 14.981 118.526 15.8132 117.972 16.3373C117.417 16.8613 116.462 17.1695 115.075 17.3237L108.665 17.971C108.942 18.68 109.373 19.1423 109.959 19.4198C110.544 19.6972 111.346 19.8205 112.363 19.8205C113.318 19.8205 114.52 19.6664 115.907 19.3581C116.462 19.2348 116.924 19.2965 117.232 19.5431C117.571 19.7897 117.725 20.1904 117.725 20.7761V21.3617C117.725 22.3481 117.263 22.9338 116.338 23.1804C114.489 23.6428 112.763 23.8894 111.161 23.8894C108.572 23.8894 106.507 23.2112 104.997 21.8241C103.487 20.4678 102.747 18.4025 102.747 15.6899C102.747 13.0698 103.456 11.0354 104.905 9.61741C106.322 8.19945 108.449 7.49048 111.253 7.49048C113.657 7.49048 115.506 8.0145 116.831 9.09338C118.157 10.1723 118.804 11.7443 118.804 13.8713ZM112.825 14.087C113.164 14.0562 113.411 13.9946 113.503 13.8713C113.626 13.7788 113.688 13.5938 113.688 13.3472C113.688 12.6074 113.503 12.0834 113.102 11.7135C112.702 11.3744 112.116 11.1895 111.284 11.1895C110.36 11.1895 109.682 11.4361 109.219 11.9293C108.757 12.4225 108.48 13.2856 108.387 14.4878L112.825 14.087Z" fill="#232225"/>
<path d="M130.391 11.806C129.004 11.806 128.018 12.1142 127.433 12.7307C126.847 13.3472 126.57 14.3336 126.57 15.7208C126.57 17.1079 126.847 18.0943 127.433 18.7108C128.018 19.3273 129.004 19.6047 130.391 19.6047C130.977 19.6047 131.716 19.5431 132.579 19.4198C133.134 19.3273 133.566 19.4198 133.905 19.6664C134.213 19.913 134.367 20.3137 134.367 20.8685V21.6083C134.367 22.5947 133.905 23.2112 132.98 23.427C131.686 23.7353 130.391 23.8894 129.128 23.8894C127.895 23.8894 126.786 23.7353 125.799 23.3962C124.813 23.0571 123.95 22.5639 123.211 21.8858C122.471 21.2076 121.886 20.3753 121.516 19.2965C121.115 18.2484 120.899 17.0462 120.899 15.6899C120.899 13.0082 121.639 10.9737 123.149 9.58658C124.659 8.19945 126.631 7.49048 129.159 7.49048C130.422 7.49048 131.716 7.6446 133.011 7.95285C133.935 8.1378 134.398 8.7543 134.398 9.74071V10.4805C134.398 11.0354 134.213 11.4361 133.843 11.6827C133.473 11.9293 132.949 11.9909 132.271 11.8985C131.501 11.8368 130.884 11.806 130.391 11.806Z" fill="#F86250"/>
<path d="M143.89 7.49048C145.061 7.49048 146.139 7.61378 147.064 7.86038C148.019 8.10698 148.851 8.47688 149.56 8.97008C150.269 9.46328 150.824 10.1414 151.224 10.9429C151.625 11.7752 151.81 12.7307 151.81 13.8096V18.9266C151.81 20.6219 151.409 21.8241 150.577 22.5331C149.776 23.2421 148.482 23.5811 146.725 23.5811H142.811C141.732 23.5811 140.808 23.5195 140.037 23.3654C139.267 23.2112 138.589 22.9646 137.973 22.6256C137.356 22.2865 136.925 21.7933 136.617 21.146C136.308 20.4986 136.154 19.6972 136.154 18.7724C136.154 17.8477 136.308 17.0462 136.617 16.3989C136.925 15.7516 137.387 15.2584 137.973 14.8885C138.589 14.5494 139.267 14.272 140.037 14.1179C140.808 13.9637 141.732 13.9021 142.811 13.9021H146.263V13.8096C146.263 12.3608 145.153 11.621 142.934 11.621C141.886 11.621 140.561 11.7752 138.99 12.0834C138.435 12.2067 137.973 12.1142 137.664 11.8676C137.356 11.621 137.202 11.1895 137.202 10.6346V9.86401C137.202 8.84678 137.757 8.23028 138.897 8.0145C140.808 7.67543 142.441 7.49048 143.89 7.49048ZM144.937 20.1596C145.492 20.1596 145.862 20.0363 146.016 19.8205C146.201 19.6047 146.293 19.204 146.293 18.6491V17.3237H143.304C142.503 17.3237 141.948 17.4161 141.702 17.6319C141.455 17.8477 141.301 18.2176 141.301 18.7416C141.301 19.2656 141.424 19.6355 141.702 19.8513C141.948 20.0671 142.503 20.1596 143.304 20.1596H144.937Z" fill="#F86250"/>
<path d="M163.243 7.6446C163.798 7.6446 164.23 7.7679 164.538 8.04533C164.846 8.32275 165 8.72348 165 9.24751V10.6963C165 11.7443 164.414 12.2992 163.213 12.33C162.288 12.3608 161.641 12.4225 161.24 12.515C160.84 12.6074 160.593 12.7307 160.501 12.9157C160.408 13.0698 160.346 13.3472 160.346 13.7788V22.0091C160.346 22.5331 160.192 22.9338 159.915 23.2112C159.638 23.4887 159.237 23.612 158.713 23.612H156.248C155.724 23.612 155.323 23.4887 155.015 23.2112C154.738 22.9338 154.583 22.5331 154.583 22.0091V12.8849C154.583 12.1759 154.614 11.5594 154.707 11.0662C154.799 10.573 154.953 10.1414 155.231 9.74071C155.477 9.33998 155.816 9.03173 156.186 8.78513C156.587 8.53853 157.111 8.35358 157.758 8.16863C158.436 7.98368 159.175 7.86038 160.038 7.79873C160.963 7.70625 162.011 7.6446 163.243 7.6446Z" fill="#F86250"/>
</svg>
